<svg width="1880" height="871" aria-label="A chart." style="overflow: hidden;"><defs id="_ABSTRACT_RENDERER_ID_455"><clipPath id="_ABSTRACT_RENDERER_ID_456"><rect x="299" y="167" width="1282" height="538"></rect></clipPath></defs><rect x="0" y="0" width="1880" height="871" stroke="none" stroke-width="0" fill="#ffffff"></rect><g><text text-anchor="start" x="299" y="135.3" font-family="Arial" font-size="18" font-weight="bold" stroke="none" stroke-width="0" fill="#000000">All Observations</text><rect x="299" y="120" width="1282" height="18" stroke="none" stroke-width="0" fill-opacity="0" fill="#ffffff"></rect></g><g><rect x="1599" y="167" width="263" height="105" stroke="none" stroke-width="0" fill-opacity="0" fill="#ffffff"></rect><g column-id="LANDSAT_4/5"><rect x="1599" y="167" width="263" height="18" stroke="none" stroke-width="0" fill-opacity="0" fill="#ffffff"></rect><g><text text-anchor="start" x="1642" y="182.3" font-family="Arial" font-size="18" stroke="none" stroke-width="0" fill="#222222">LANDSAT_4/5</text></g><path d="M1599,176L1635,176" stroke="none" stroke-width="0" fill-opacity="1" fill="none"></path><circle cx="1617" cy="176" r="4" stroke="none" stroke-width="0" fill-opacity="0.5" fill="#f8766d"></circle></g><g column-id="LANDSAT_7"><rect x="1599" y="196" width="263" height="18" stroke="none" stroke-width="0" fill-opacity="0" fill="#ffffff"></rect><g><text text-anchor="start" x="1642" y="211.3" font-family="Arial" font-size="18" stroke="none" stroke-width="0" fill="#222222">LANDSAT_7</text></g><path d="M1599,205L1635,205" stroke="none" stroke-width="0" fill-opacity="1" fill="none"></path><circle cx="1617" cy="205" r="4" stroke="none" stroke-width="0" fill-opacity="0.5" fill="#00ba38"></circle></g><g column-id="LANDSAT_8"><rect x="1599" y="225" width="263" height="18" stroke="none" stroke-width="0" fill-opacity="0" fill="#ffffff"></rect><g><text text-anchor="start" x="1642" y="240.3" font-family="Arial" font-size="18" stroke="none" stroke-width="0" fill="#222222">LANDSAT_8</text></g><path d="M1599,234L1635,234" stroke="none" stroke-width="0" fill-opacity="1" fill="none"></path><circle cx="1617" cy="234" r="4" stroke="none" stroke-width="0" fill-opacity="0.5" fill="#619cff"></circle></g><g column-id="SENTINEL_2"><rect x="1599" y="254" width="263" height="18" stroke="none" stroke-width="0" fill-opacity="0" fill="#ffffff"></rect><g><text text-anchor="start" x="1642" y="269.3" font-family="Arial" font-size="18" stroke="none" stroke-width="0" fill="#222222">SENTINEL_2</text></g><path d="M1599,263L1635,263" stroke="none" stroke-width="0" fill-opacity="1" fill="none"></path><circle cx="1617" cy="263" r="4" stroke="none" stroke-width="0" fill-opacity="0.5" fill="#8934eb"></circle></g></g><g><rect x="299" y="167" width="1282" height="538" stroke="none" stroke-width="0" fill-opacity="0" fill="#ffffff"></rect><g clip-path="url(https://code.earthengine.google.com/#_ABSTRACT_RENDERER_ID_456)"><g><rect x="299" y="167" width="1" height="538" stroke="none" stroke-width="0" fill="#ebebeb"></rect><rect x="322" y="167" width="1" height="538" stroke="none" stroke-width="0" fill="#ebebeb"></rect><rect x="322" y="167" width="1" height="538" stroke="none" stroke-width="0" fill="#cccccc"></rect><rect x="346" y="167" width="1" height="538" stroke="none" stroke-width="0" fill="#ebebeb"></rect><rect x="369" y="167" width="1" height="538" stroke="none" stroke-width="0" fill="#ebebeb"></rect><rect x="369" y="167" width="1" height="538" stroke="none" stroke-width="0" fill="#cccccc"></rect><rect x="392" y="167" width="1" height="538" stroke="none" stroke-width="0" fill="#ebebeb"></rect><rect x="416" y="167" width="1" height="538" stroke="none" stroke-width="0" fill="#ebebeb"></rect><rect x="416" y="167" width="1" height="538" stroke="none" stroke-width="0" fill="#cccccc"></rect><rect x="439" y="167" width="1" height="538" stroke="none" stroke-width="0" fill="#ebebeb"></rect><rect x="462" y="167" width="1" height="538" stroke="none" stroke-width="0" fill="#ebebeb"></rect><rect x="462" y="167" width="1" height="538" stroke="none" stroke-width="0" fill="#cccccc"></rect><rect x="485" y="167" width="1" height="538" stroke="none" stroke-width="0" fill="#ebebeb"></rect><rect x="509" y="167" width="1" height="538" stroke="none" stroke-width="0" fill="#ebebeb"></rect><rect x="509" y="167" width="1" height="538" stroke="none" stroke-width="0" fill="#cccccc"></rect><rect x="532" y="167" width="1" height="538" stroke="none" stroke-width="0" fill="#ebebeb"></rect><rect x="555" y="167" width="1" height="538" stroke="none" stroke-width="0" fill="#ebebeb"></rect><rect x="555" y="167" width="1" height="538" stroke="none" stroke-width="0" fill="#cccccc"></rect><rect x="578" y="167" width="1" height="538" stroke="none" stroke-width="0" fill="#ebebeb"></rect><rect x="602" y="167" width="1" height="538" stroke="none" stroke-width="0" fill="#ebebeb"></rect><rect x="602" y="167" width="1" height="538" stroke="none" stroke-width="0" fill="#cccccc"></rect><rect x="625" y="167" width="1" height="538" stroke="none" stroke-width="0" fill="#ebebeb"></rect><rect x="649" y="167" width="1" height="538" stroke="none" stroke-width="0" fill="#ebebeb"></rect><rect x="649" y="167" width="1" height="538" stroke="none" stroke-width="0" fill="#cccccc"></rect><rect x="672" y="167" width="1" height="538" stroke="none" stroke-width="0" fill="#ebebeb"></rect><rect x="695" y="167" width="1" height="538" stroke="none" stroke-width="0" fill="#ebebeb"></rect><rect x="695" y="167" width="1" height="538" stroke="none" stroke-width="0" fill="#cccccc"></rect><rect x="718" y="167" width="1" height="538" stroke="none" stroke-width="0" fill="#ebebeb"></rect><rect x="742" y="167" width="1" height="538" stroke="none" stroke-width="0" fill="#ebebeb"></rect><rect x="742" y="167" width="1" height="538" stroke="none" stroke-width="0" fill="#cccccc"></rect><rect x="765" y="167" width="1" height="538" stroke="none" stroke-width="0" fill="#ebebeb"></rect><rect x="788" y="167" width="1" height="538" stroke="none" stroke-width="0" fill="#ebebeb"></rect><rect x="788" y="167" width="1" height="538" stroke="none" stroke-width="0" fill="#cccccc"></rect><rect x="811" y="167" width="1" height="538" stroke="none" stroke-width="0" fill="#ebebeb"></rect><rect x="835" y="167" width="1" height="538" stroke="none" stroke-width="0" fill="#ebebeb"></rect><rect x="835" y="167" width="1" height="538" stroke="none" stroke-width="0" fill="#cccccc"></rect><rect x="858" y="167" width="1" height="538" stroke="none" stroke-width="0" fill="#ebebeb"></rect><rect x="881" y="167" width="1" height="538" stroke="none" stroke-width="0" fill="#ebebeb"></rect><rect x="881" y="167" width="1" height="538" stroke="none" stroke-width="0" fill="#cccccc"></rect><rect x="904" y="167" width="1" height="538" stroke="none" stroke-width="0" fill="#ebebeb"></rect><rect x="928" y="167" width="1" height="538" stroke="none" stroke-width="0" fill="#ebebeb"></rect><rect x="928" y="167" width="1" height="538" stroke="none" stroke-width="0" fill="#cccccc"></rect><rect x="951" y="167" width="1" height="538" stroke="none" stroke-width="0" fill="#ebebeb"></rect><rect x="974" y="167" width="1" height="538" stroke="none" stroke-width="0" fill="#ebebeb"></rect><rect x="974" y="167" width="1" height="538" stroke="none" stroke-width="0" fill="#cccccc"></rect><rect x="998" y="167" width="1" height="538" stroke="none" stroke-width="0" fill="#ebebeb"></rect><rect x="1021" y="167" width="1" height="538" stroke="none" stroke-width="0" fill="#ebebeb"></rect><rect x="1021" y="167" width="1" height="538" stroke="none" stroke-width="0" fill="#cccccc"></rect><rect x="1044" y="167" width="1" height="538" stroke="none" stroke-width="0" fill="#ebebeb"></rect><rect x="1068" y="167" width="1" height="538" stroke="none" stroke-width="0" fill="#ebebeb"></rect><rect x="1068" y="167" width="1" height="538" stroke="none" stroke-width="0" fill="#cccccc"></rect><rect x="1091" y="167" width="1" height="538" stroke="none" stroke-width="0" fill="#ebebeb"></rect><rect x="1114" y="167" width="1" height="538" stroke="none" stroke-width="0" fill="#ebebeb"></rect><rect x="1114" y="167" width="1" height="538" stroke="none" stroke-width="0" fill="#cccccc"></rect><rect x="1137" y="167" width="1" height="538" stroke="none" stroke-width="0" fill="#ebebeb"></rect><rect x="1161" y="167" width="1" height="538" stroke="none" stroke-width="0" fill="#ebebeb"></rect><rect x="1161" y="167" width="1" height="538" stroke="none" stroke-width="0" fill="#cccccc"></rect><rect x="1184" y="167" width="1" height="538" stroke="none" stroke-width="0" fill="#ebebeb"></rect><rect x="1207" y="167" width="1" height="538" stroke="none" stroke-width="0" fill="#ebebeb"></rect><rect x="1207" y="167" width="1" height="538" stroke="none" stroke-width="0" fill="#cccccc"></rect><rect x="1230" y="167" width="1" height="538" stroke="none" stroke-width="0" fill="#ebebeb"></rect><rect x="1254" y="167" width="1" height="538" stroke="none" stroke-width="0" fill="#ebebeb"></rect><rect x="1254" y="167" width="1" height="538" stroke="none" stroke-width="0" fill="#cccccc"></rect><rect x="1277" y="167" width="1" height="538" stroke="none" stroke-width="0" fill="#ebebeb"></rect><rect x="1300" y="167" width="1" height="538" stroke="none" stroke-width="0" fill="#ebebeb"></rect><rect x="1300" y="167" width="1" height="538" stroke="none" stroke-width="0" fill="#cccccc"></rect><rect x="1324" y="167" width="1" height="538" stroke="none" stroke-width="0" fill="#ebebeb"></rect><rect x="1347" y="167" width="1" height="538" stroke="none" stroke-width="0" fill="#ebebeb"></rect><rect x="1347" y="167" width="1" height="538" stroke="none" stroke-width="0" fill="#cccccc"></rect><rect x="1370" y="167" width="1" height="538" stroke="none" stroke-width="0" fill="#ebebeb"></rect><rect x="1394" y="167" width="1" height="538" stroke="none" stroke-width="0" fill="#ebebeb"></rect><rect x="1394" y="167" width="1" height="538" stroke="none" stroke-width="0" fill="#cccccc"></rect><rect x="1417" y="167" width="1" height="538" stroke="none" stroke-width="0" fill="#ebebeb"></rect><rect x="1440" y="167" width="1" height="538" stroke="none" stroke-width="0" fill="#ebebeb"></rect><rect x="1440" y="167" width="1" height="538" stroke="none" stroke-width="0" fill="#cccccc"></rect><rect x="1463" y="167" width="1" height="538" stroke="none" stroke-width="0" fill="#ebebeb"></rect><rect x="1487" y="167" width="1" height="538" stroke="none" stroke-width="0" fill="#ebebeb"></rect><rect x="1487" y="167" width="1" height="538" stroke="none" stroke-width="0" fill="#cccccc"></rect><rect x="1510" y="167" width="1" height="538" stroke="none" stroke-width="0" fill="#ebebeb"></rect><rect x="1533" y="167" width="1" height="538" stroke="none" stroke-width="0" fill="#ebebeb"></rect><rect x="1533" y="167" width="1" height="538" stroke="none" stroke-width="0" fill="#cccccc"></rect><rect x="1557" y="167" width="1" height="538" stroke="none" stroke-width="0" fill="#ebebeb"></rect><rect x="1580" y="167" width="1" height="538" stroke="none" stroke-width="0" fill="#ebebeb"></rect><rect x="1580" y="167" width="1" height="538" stroke="none" stroke-width="0" fill="#cccccc"></rect><rect x="299" y="704" width="1282" height="1" stroke="none" stroke-width="0" fill="#cccccc"></rect><rect x="299" y="650" width="1282" height="1" stroke="none" stroke-width="0" fill="#cccccc"></rect><rect x="299" y="597" width="1282" height="1" stroke="none" stroke-width="0" fill="#cccccc"></rect><rect x="299" y="543" width="1282" height="1" stroke="none" stroke-width="0" fill="#cccccc"></rect><rect x="299" y="489" width="1282" height="1" stroke="none" stroke-width="0" fill="#cccccc"></rect><rect x="299" y="436" width="1282" height="1" stroke="none" stroke-width="0" fill="#cccccc"></rect><rect x="299" y="382" width="1282" height="1" stroke="none" stroke-width="0" fill="#cccccc"></rect><rect x="299" y="328" width="1282" height="1" stroke="none" stroke-width="0" fill="#cccccc"></rect><rect x="299" y="274" width="1282" height="1" stroke="none" stroke-width="0" fill="#cccccc"></rect><rect x="299" y="221" width="1282" height="1" stroke="none" stroke-width="0" fill="#cccccc"></rect><rect x="299" y="167" width="1282" height="1" stroke="none" stroke-width="0" fill="#cccccc"></rect><rect x="299" y="677" width="1282" height="1" stroke="none" stroke-width="0" fill="#ebebeb"></rect><rect x="299" y="623" width="1282" height="1" stroke="none" stroke-width="0" fill="#ebebeb"></rect><rect x="299" y="570" width="1282" height="1" stroke="none" stroke-width="0" fill="#ebebeb"></rect><rect x="299" y="516" width="1282" height="1" stroke="none" stroke-width="0" fill="#ebebeb"></rect><rect x="299" y="462" width="1282" height="1" stroke="none" stroke-width="0" fill="#ebebeb"></rect><rect x="299" y="409" width="1282" height="1" stroke="none" stroke-width="0" fill="#ebebeb"></rect><rect x="299" y="355" width="1282" height="1" stroke="none" stroke-width="0" fill="#ebebeb"></rect><rect x="299" y="301" width="1282" height="1" stroke="none" stroke-width="0" fill="#ebebeb"></rect><rect x="299" y="248" width="1282" height="1" stroke="none" stroke-width="0" fill="#ebebeb"></rect><rect x="299" y="194" width="1282" height="1" stroke="none" stroke-width="0" fill="#ebebeb"></rect></g><g><rect x="299" y="704" width="1282" height="1" stroke="none" stroke-width="0" fill="#333333"></rect></g></g><g><circle cx="309.9151064956036" cy="381.5815109099152" r="4" stroke="none" stroke-width="0" fill-opacity="0.5" fill="#f8766d"></circle><circle cx="452.729295883194" cy="200.5939240802743" r="4" stroke="none" stroke-width="0" fill-opacity="0.5" fill="#f8766d"></circle><circle cx="591.5932976078127" cy="318.4610942362252" r="4" stroke="none" stroke-width="0" fill-opacity="0.5" fill="#00ba38"></circle><circle cx="592.4864294778278" cy="314.5957368900853" r="4" stroke="none" stroke-width="0" fill-opacity="0.5" fill="#00ba38"></circle><circle cx="631.2501866635146" cy="410.94325991535044" r="4" stroke="none" stroke-width="0" fill-opacity="0.5" fill="#00ba38"></circle><circle cx="632.3972473485619" cy="463.0123167005005" r="4" stroke="none" stroke-width="0" fill-opacity="0.5" fill="#00ba38"></circle><circle cx="658.9198633852575" cy="293.1988994157061" r="4" stroke="none" stroke-width="0" fill-opacity="0.5" fill="#00ba38"></circle><circle cx="660.0669274367046" cy="300.245667884809" r="4" stroke="none" stroke-width="0" fill-opacity="0.5" fill="#00ba38"></circle><circle cx="676.1345579618285" cy="385.9985326163983" r="4" stroke="none" stroke-width="0" fill-opacity="0.5" fill="#00ba38"></circle><circle cx="676.3884859562916" cy="388.3618698015559" r="4" stroke="none" stroke-width="0" fill-opacity="0.5" fill="#00ba38"></circle><circle cx="704.951356266364" cy="324.5327587923379" r="4" stroke="none" stroke-width="0" fill-opacity="0.5" fill="#00ba38"></circle><circle cx="705.844488297246" cy="291.7667629786483" r="4" stroke="none" stroke-width="0" fill-opacity="0.5" fill="#00ba38"></circle><circle cx="706.737626718532" cy="295.72315595583575" r="4" stroke="none" stroke-width="0" fill-opacity="0.5" fill="#00ba38"></circle><circle cx="706.9915560988125" cy="283.094988400258" r="4" stroke="none" stroke-width="0" fill-opacity="0.5" fill="#00ba38"></circle><circle cx="725.0994261949565" cy="296.77230168357875" r="4" stroke="none" stroke-width="0" fill-opacity="0.5" fill="#00ba38"></circle><circle cx="725.3533544476923" cy="276.51225874738566" r="4" stroke="none" stroke-width="0" fill-opacity="0.5" fill="#00ba38"></circle><circle cx="729.1798080331357" cy="379.5943143938197" r="4" stroke="none" stroke-width="0" fill-opacity="0.5" fill="#00ba38"></circle><circle cx="750.7290278225739" cy="337.33608018382995" r="4" stroke="none" stroke-width="0" fill-opacity="0.5" fill="#00ba38"></circle><circle cx="753.6623706499486" cy="306.9424461695326" r="4" stroke="none" stroke-width="0" fill-opacity="0.5" fill="#00ba38"></circle><circle cx="753.9163034704209" cy="307.8895026427087" r="4" stroke="none" stroke-width="0" fill-opacity="0.5" fill="#00ba38"></circle><circle cx="754.8094430871404" cy="313.6632296391361" r="4" stroke="none" stroke-width="0" fill-opacity="0.5" fill="#00ba38"></circle><circle cx="755.7025796208222" cy="327.1778819104444" r="4" stroke="none" stroke-width="0" fill-opacity="0.5" fill="#00ba38"></circle><circle cx="767.0506646548633" cy="393.3810037489651" r="4" stroke="none" stroke-width="0" fill-opacity="0.5" fill="#00ba38"></circle><circle cx="773.1712640075762" cy="480.9025031131747" r="4" stroke="none" stroke-width="0" fill-opacity="0.5" fill="#00ba38"></circle><circle cx="862.940444712881" cy="417.2780777077753" r="4" stroke="none" stroke-width="0" fill-opacity="0.5" fill="#00ba38"></circle><circle cx="892.6504678759254" cy="299.8723250243035" r="4" stroke="none" stroke-width="0" fill-opacity="0.5" fill="#00ba38"></circle><circle cx="908.9720851813249" cy="460.92227162252436" r="4" stroke="none" stroke-width="0" fill-opacity="0.5" fill="#00ba38"></circle><circle cx="909.8652221341463" cy="432.8101058522191" r="4" stroke="none" stroke-width="0" fill-opacity="0.5" fill="#00ba38"></circle><circle cx="911.9054252385406" cy="303.2599500960988" r="4" stroke="none" stroke-width="0" fill-opacity="0.5" fill="#00ba38"></circle><circle cx="937.5350507394081" cy="328.7295402918706" r="4" stroke="none" stroke-width="0" fill-opacity="0.5" fill="#00ba38"></circle><circle cx="952.7096070483573" cy="425.525366061019" r="4" stroke="none" stroke-width="0" fill-opacity="0.5" fill="#00ba38"></circle><circle cx="955.6429422175781" cy="369.24092313768097" r="4" stroke="none" stroke-width="0" fill-opacity="0.5" fill="#00ba38"></circle><circle cx="955.8968724804131" cy="365.043827588251" r="4" stroke="none" stroke-width="0" fill-opacity="0.5" fill="#00ba38"></circle><circle cx="956.7900063811894" cy="478.04522002969543" r="4" stroke="none" stroke-width="0" fill-opacity="0.5" fill="#00ba38"></circle><circle cx="957.6831398554468" cy="451.061092292674" r="4" stroke="none" stroke-width="0" fill-opacity="0.5" fill="#00ba38"></circle><circle cx="958.8302029180786" cy="465.27519361940983" r="4" stroke="none" stroke-width="0" fill-opacity="0.5" fill="#00ba38"></circle><circle cx="959.9772652708294" cy="309.6784581217354" r="4" stroke="none" stroke-width="0" fill-opacity="0.5" fill="#00ba38"></circle><circle cx="964.0576608712526" cy="399.0714392079919" r="4" stroke="none" stroke-width="0" fill-opacity="0.5" fill="#00ba38"></circle><circle cx="986.2460435328729" cy="290.0036573135473" r="4" stroke="none" stroke-width="0" fill-opacity="0.5" fill="#00ba38"></circle><circle cx="1001.6744802550791" cy="428.0883340861255" r="4" stroke="none" stroke-width="0" fill-opacity="0.5" fill="#00ba38"></circle><circle cx="1004.6078112727512" cy="481.5845570718616" r="4" stroke="none" stroke-width="0" fill-opacity="0.5" fill="#00ba38"></circle><circle cx="1008.9421294601453" cy="288.18107854869817" r="4" stroke="none" stroke-width="0" fill-opacity="0.5" fill="#00ba38"></circle><circle cx="1010.9823142138971" cy="310.0652692438201" r="4" stroke="none" stroke-width="0" fill-opacity="0.5" fill="#00ba38"></circle><circle cx="1030.2374466647243" cy="301.1220494582671" r="4" stroke="none" stroke-width="0" fill-opacity="0.5" fill="#00ba38"></circle><circle cx="1046.5591178738446" cy="392.534296609705" r="4" stroke="none" stroke-width="0" fill-opacity="0.5" fill="#00ba38"></circle><circle cx="1048.599316717478" cy="360.8637822015055" r="4" stroke="none" stroke-width="0" fill-opacity="0.5" fill="#00ba38"></circle><circle cx="1049.4924503968775" cy="377.2377817756474" r="4" stroke="none" stroke-width="0" fill-opacity="0.5" fill="#00ba38"></circle><circle cx="1051.5326550479563" cy="282.3064623205417" r="4" stroke="none" stroke-width="0" fill-opacity="0.5" fill="#00ba38"></circle><circle cx="1077.1623749851206" cy="281.4060525838663" r="4" stroke="none" stroke-width="0" fill-opacity="0.5" fill="#00ba38"></circle><circle cx="1088.5104781735172" cy="390.0810809645431" r="4" stroke="none" stroke-width="0" fill-opacity="0.5" fill="#00ba38"></circle><circle cx="1091.4438278679931" cy="392.33679598587344" r="4" stroke="none" stroke-width="0" fill-opacity="0.5" fill="#00ba38"></circle><circle cx="1093.4840365702635" cy="451.4613749699737" r="4" stroke="none" stroke-width="0" fill-opacity="0.5" fill="#00ba38"></circle><circle cx="1096.4173786744745" cy="503.20694244830315" r="4" stroke="none" stroke-width="0" fill-opacity="0.5" fill="#00ba38"></circle><circle cx="1096.6713107038945" cy="498.1671831332257" r="4" stroke="none" stroke-width="0" fill-opacity="0.5" fill="#00ba38"></circle><circle cx="1104.5782192378701" cy="441.9240297897637" r="4" stroke="none" stroke-width="0" fill-opacity="0.5" fill="#00ba38"></circle><circle cx="1126.1274641461707" cy="272.1156972744658" r="4" stroke="none" stroke-width="0" fill-opacity="0.5" fill="#00ba38"></circle><circle cx="1136.3284932901813" cy="323.6144356902874" r="4" stroke="none" stroke-width="0" fill-opacity="0.5" fill="#00ba38"></circle><circle cx="1137.475557744534" cy="399.44907678571184" r="4" stroke="none" stroke-width="0" fill-opacity="0.5" fill="#00ba38"></circle><circle cx="1139.2618334728438" cy="461.7374193337006" r="4" stroke="none" stroke-width="0" fill-opacity="0.5" fill="#00ba38"></circle><circle cx="1143.342236086477" cy="444.17740829579407" r="4" stroke="none" stroke-width="0" fill-opacity="0.5" fill="#00ba38"></circle><circle cx="1144.4893037419347" cy="416.7341749252084" r="4" stroke="none" stroke-width="0" fill-opacity="0.5" fill="#00ba38"></circle><circle cx="1146.5295038488903" cy="266.5454189732947" r="4" stroke="none" stroke-width="0" fill-opacity="0.5" fill="#00ba38"></circle><circle cx="1147.4226371991767" cy="307.8400577039767" r="4" stroke="none" stroke-width="0" fill-opacity="0.5" fill="#00ba38"></circle><circle cx="1186.1866949965472" cy="396.7676567246728" r="4" stroke="none" stroke-width="0" fill-opacity="0.5" fill="#00ba38"></circle><circle cx="1187.333772122495" cy="452.6929515133708" r="4" stroke="none" stroke-width="0" fill-opacity="0.5" fill="#00ba38"></circle><circle cx="1190.2671400554495" cy="469.80778363267814" r="4" stroke="none" stroke-width="0" fill-opacity="0.5" fill="#00ba38"></circle><circle cx="1192.561294310297" cy="406.6511560295473" r="4" stroke="none" stroke-width="0" fill-opacity="0.5" fill="#00ba38"></circle><circle cx="1197.5348761434439" cy="263.8300550534359" r="4" stroke="none" stroke-width="0" fill-opacity="0.5" fill="#00ba38"></circle><circle cx="1217.9369785370586" cy="268.1336634135667" r="4" stroke="none" stroke-width="0" fill-opacity="0.5" fill="#00ba38"></circle><circle cx="1235.1516942122935" cy="420.52186023837817" r="4" stroke="none" stroke-width="0" fill-opacity="0.5" fill="#00ba38"></circle><circle cx="1235.4056256484241" cy="417.2740866491323" r="4" stroke="none" stroke-width="0" fill-opacity="0.5" fill="#00ba38"></circle><circle cx="1236.2987608184262" cy="434.609795601241" r="4" stroke="none" stroke-width="0" fill-opacity="0.5" fill="#00ba38"></circle><circle cx="1239.2321307024463" cy="264.78279634597664" r="4" stroke="none" stroke-width="0" fill-opacity="0.5" fill="#00ba38"></circle><circle cx="1241.272352508734" cy="260.0250052508071" r="4" stroke="none" stroke-width="0" fill-opacity="0.5" fill="#00ba38"></circle><circle cx="1242.4194293454166" cy="358.4732224563805" r="4" stroke="none" stroke-width="0" fill-opacity="0.5" fill="#00ba38"></circle><circle cx="1242.5469347987669" cy="278.452290101542" r="4" stroke="none" stroke-width="0" fill-opacity="0.5" fill="#619cff"></circle><circle cx="1279.0165432654962" cy="446.9397726388264" r="4" stroke="none" stroke-width="0" fill-opacity="0.5" fill="#619cff"></circle><circle cx="1279.2704750277887" cy="439.23675509411856" r="4" stroke="none" stroke-width="0" fill-opacity="0.5" fill="#619cff"></circle><circle cx="1280.1636132660701" cy="427.7723650415248" r="4" stroke="none" stroke-width="0" fill-opacity="0.5" fill="#619cff"></circle><circle cx="1281.3106888497612" cy="424.6777645932058" r="4" stroke="none" stroke-width="0" fill-opacity="0.5" fill="#619cff"></circle><circle cx="1282.2038325353824" cy="402.12276929952367" r="4" stroke="none" stroke-width="0" fill-opacity="0.5" fill="#619cff"></circle><circle cx="1285.3911147684446" cy="480.721347706459" r="4" stroke="none" stroke-width="0" fill-opacity="0.5" fill="#619cff"></circle><circle cx="1325.9412661026765" cy="400.40227830728264" r="4" stroke="none" stroke-width="0" fill-opacity="0.5" fill="#619cff"></circle><circle cx="1326.1951985217195" cy="395.6544474336613" r="4" stroke="none" stroke-width="0" fill-opacity="0.5" fill="#619cff"></circle><circle cx="1327.0883392881215" cy="406.4683197964531" r="4" stroke="none" stroke-width="0" fill-opacity="0.5" fill="#619cff"></circle><circle cx="1327.9814787498774" cy="384.44478998353094" r="4" stroke="none" stroke-width="0" fill-opacity="0.5" fill="#619cff"></circle><circle cx="1328.2354102509453" cy="365.1730188778072" r="4" stroke="none" stroke-width="0" fill-opacity="0.5" fill="#619cff"></circle><circle cx="1333.2089848745948" cy="373.8732893430469" r="4" stroke="none" stroke-width="0" fill-opacity="0.5" fill="#619cff"></circle><circle cx="1369.932693336534" cy="505.8202874505532" r="4" stroke="none" stroke-width="0" fill-opacity="0.5" fill="#619cff"></circle><circle cx="1370.8258368347228" cy="468.23031504118364" r="4" stroke="none" stroke-width="0" fill-opacity="0.5" fill="#619cff"></circle><circle cx="1371.9729121453827" cy="487.3688497650163" r="4" stroke="none" stroke-width="0" fill-opacity="0.5" fill="#619cff"></circle><circle cx="1372.866053568535" cy="533.451342318274" r="4" stroke="none" stroke-width="0" fill-opacity="0.5" fill="#619cff"></circle><circle cx="1373.1199857293054" cy="558.2456749938826" r="4" stroke="none" stroke-width="0" fill-opacity="0.5" fill="#619cff"></circle><circle cx="1374.0131257976332" cy="520.0486177450132" r="4" stroke="none" stroke-width="0" fill-opacity="0.5" fill="#619cff"></circle><circle cx="1374.9062650837636" cy="529.152652687723" r="4" stroke="none" stroke-width="0" fill-opacity="0.5" fill="#619cff"></circle><circle cx="1375.1601966896167" cy="484.98859611814544" r="4" stroke="none" stroke-width="0" fill-opacity="0.5" fill="#619cff"></circle><circle cx="1376.9464779980922" cy="495.0986036935732" r="4" stroke="none" stroke-width="0" fill-opacity="0.5" fill="#619cff"></circle><circle cx="1377.2004106798352" cy="468.4533703568974" r="4" stroke="none" stroke-width="0" fill-opacity="0.5" fill="#619cff"></circle><circle cx="1378.9866938227847" cy="435.3829315637716" r="4" stroke="none" stroke-width="0" fill-opacity="0.5" fill="#619cff"></circle><circle cx="1420.9378713539536" cy="403.321091428198" r="4" stroke="none" stroke-width="0" fill-opacity="0.5" fill="#619cff"></circle><circle cx="1422.978086678335" cy="431.037361604566" r="4" stroke="none" stroke-width="0" fill-opacity="0.5" fill="#619cff"></circle><circle cx="1423.871227077252" cy="306.7498969678945" r="4" stroke="none" stroke-width="0" fill-opacity="0.5" fill="#619cff"></circle><circle cx="1429.0987234200763" cy="317.1802525685461" r="4" stroke="none" stroke-width="0" fill-opacity="0.5" fill="#619cff"></circle><circle cx="1463.7821295448318" cy="290.1412753903816" r="4" stroke="none" stroke-width="0" fill-opacity="0.5" fill="#619cff"></circle><circle cx="1465.8223473899545" cy="457.6243966054951" r="4" stroke="none" stroke-width="0" fill-opacity="0.5" fill="#619cff"></circle><circle cx="1466.9694211480269" cy="357.06331294959193" r="4" stroke="none" stroke-width="0" fill-opacity="0.5" fill="#619cff"></circle><circle cx="1469.0096417072264" cy="481.1732150784667" r="4" stroke="none" stroke-width="0" fill-opacity="0.5" fill="#619cff"></circle><circle cx="1508.666743499917" cy="421.2612419619979" r="4" stroke="none" stroke-width="0" fill-opacity="0.5" fill="#619cff"></circle><circle cx="1510.7069566208636" cy="348.57458464201875" r="4" stroke="none" stroke-width="0" fill-opacity="0.5" fill="#619cff"></circle><circle cx="1511.854027853767" cy="464.8877895019723" r="4" stroke="none" stroke-width="0" fill-opacity="0.5" fill="#619cff"></circle><circle cx="1513.8942422808354" cy="518.9595181328524" r="4" stroke="none" stroke-width="0" fill-opacity="0.5" fill="#619cff"></circle><circle cx="1514.78738413641" cy="508.92034902374473" r="4" stroke="none" stroke-width="0" fill-opacity="0.5" fill="#619cff"></circle><circle cx="1515.6805253367102" cy="462.5061720249244" r="4" stroke="none" stroke-width="0" fill-opacity="0.5" fill="#619cff"></circle><circle cx="1515.93445754028" cy="477.61657524808777" r="4" stroke="none" stroke-width="0" fill-opacity="0.5" fill="#619cff"></circle><circle cx="1516.8275980764502" cy="441.000725471095" r="4" stroke="none" stroke-width="0" fill-opacity="0.5" fill="#619cff"></circle><circle cx="1518.8678091223603" cy="323.6465037542461" r="4" stroke="none" stroke-width="0" fill-opacity="0.5" fill="#619cff"></circle><circle cx="1556.7385561493988" cy="343.1140907924191" r="4" stroke="none" stroke-width="0" fill-opacity="0.5" fill="#619cff"></circle><circle cx="1558.5248399181062" cy="382.3576464270694" r="4" stroke="none" stroke-width="0" fill-opacity="0.5" fill="#619cff"></circle><circle cx="1559.6719131138818" cy="496.00324471138447" r="4" stroke="none" stroke-width="0" fill-opacity="0.5" fill="#619cff"></circle><circle cx="1563.7523415474034" cy="341.4189805062082" r="4" stroke="none" stroke-width="0" fill-opacity="0.5" fill="#619cff"></circle><circle cx="1564.899416878725" cy="327.53807370238275" r="4" stroke="none" stroke-width="0" fill-opacity="0.5" fill="#619cff"></circle><circle cx="1492.4739380456647" cy="344.384828632936" r="4" stroke="none" stroke-width="0" fill-opacity="0.5" fill="#8934eb"></circle><circle cx="1492.72808721304" cy="340.1087791791784" r="4" stroke="none" stroke-width="0" fill-opacity="0.5" fill="#8934eb"></circle><circle cx="1492.8573593282317" cy="360.80907836340157" r="4" stroke="none" stroke-width="0" fill-opacity="0.5" fill="#8934eb"></circle><circle cx="1493.1115070197632" cy="360.2723012585692" r="4" stroke="none" stroke-width="0" fill-opacity="0.5" fill="#8934eb"></circle><circle cx="1494.0032148303299" cy="318.8785115444836" r="4" stroke="none" stroke-width="0" fill-opacity="0.5" fill="#8934eb"></circle><circle cx="1494.6407734735212" cy="330.91973353534655" r="4" stroke="none" stroke-width="0" fill-opacity="0.5" fill="#8934eb"></circle><circle cx="1496.045182061066" cy="328.5973881593227" r="4" stroke="none" stroke-width="0" fill-opacity="0.5" fill="#8934eb"></circle><circle cx="1501.3998505526638" cy="306.6996818888404" r="4" stroke="none" stroke-width="0" fill-opacity="0.5" fill="#8934eb"></circle><circle cx="1508.6672067805866" cy="417.1646060146009" r="4" stroke="none" stroke-width="0" fill-opacity="0.5" fill="#8934eb"></circle><circle cx="1508.7964892266855" cy="410.3916673226944" r="4" stroke="none" stroke-width="0" fill-opacity="0.5" fill="#8934eb"></circle><circle cx="1509.0506265873098" cy="459.2933112890887" r="4" stroke="none" stroke-width="0" fill-opacity="0.5" fill="#8934eb"></circle><circle cx="1510.071619797139" cy="394.46368150861684" r="4" stroke="none" stroke-width="0" fill-opacity="0.5" fill="#8934eb"></circle><circle cx="1510.3257571562874" cy="389.6472108356458" r="4" stroke="none" stroke-width="0" fill-opacity="0.5" fill="#8934eb"></circle><circle cx="1510.7091790513296" cy="414.6546347773081" r="4" stroke="none" stroke-width="0" fill-opacity="0.5" fill="#8934eb"></circle><circle cx="1511.2174673710037" cy="489.6930394723732" r="4" stroke="none" stroke-width="0" fill-opacity="0.5" fill="#8934eb"></circle><circle cx="1511.3467488887968" cy="513.0003802427614" r="4" stroke="none" stroke-width="0" fill-opacity="0.5" fill="#8934eb"></circle><circle cx="1511.6008862494211" cy="611.0063461719506" r="4" stroke="none" stroke-width="0" fill-opacity="0.5" fill="#8934eb"></circle><circle cx="1511.855037497736" cy="501.1079670268183" r="4" stroke="none" stroke-width="0" fill-opacity="0.5" fill="#8934eb"></circle><circle cx="1512.2384572778942" cy="493.0291889460583" r="4" stroke="none" stroke-width="0" fill-opacity="0.5" fill="#8934eb"></circle><circle cx="1512.4925966309077" cy="514.6344682360447" r="4" stroke="none" stroke-width="0" fill-opacity="0.5" fill="#8934eb"></circle><circle cx="1512.876016390404" cy="516.6241943425681" r="4" stroke="none" stroke-width="0" fill-opacity="0.5" fill="#8934eb"></circle><circle cx="1513.1301661879645" cy="533.8675342959586" r="4" stroke="none" stroke-width="0" fill-opacity="0.5" fill="#8934eb"></circle><circle cx="1513.2594374324085" cy="537.6698511775667" r="4" stroke="none" stroke-width="0" fill-opacity="0.5" fill="#8934eb"></circle><circle cx="1513.5135831138405" cy="510.8009321984971" r="4" stroke="none" stroke-width="0" fill-opacity="0.5" fill="#8934eb"></circle><circle cx="1513.7677252414405" cy="489.04531407780246" r="4" stroke="none" stroke-width="0" fill-opacity="0.5" fill="#8934eb"></circle><circle cx="1514.4052943513166" cy="535.9776623888407" r="4" stroke="none" stroke-width="0" fill-opacity="0.5" fill="#8934eb"></circle><circle cx="1514.5345657713858" cy="533.6350568296893" r="4" stroke="none" stroke-width="0" fill-opacity="0.5" fill="#8934eb"></circle><circle cx="1514.788713749231" cy="516.4349010692881" r="4" stroke="none" stroke-width="0" fill-opacity="0.5" fill="#8934eb"></circle><circle cx="1515.1721344517914" cy="519.0425893533298" r="4" stroke="none" stroke-width="0" fill-opacity="0.5" fill="#8934eb"></circle><circle cx="1515.4262727156322" cy="497.3746727037148" r="4" stroke="none" stroke-width="0" fill-opacity="0.5" fill="#8934eb"></circle><circle cx="1515.6804218165944" cy="490.7664684103021" r="4" stroke="none" stroke-width="0" fill-opacity="0.5" fill="#8934eb"></circle><circle cx="1515.8096934314751" cy="487.595513455291" r="4" stroke="none" stroke-width="0" fill-opacity="0.5" fill="#8934eb"></circle><circle cx="1516.4472616233763" cy="430.52230059044115" r="4" stroke="none" stroke-width="0" fill-opacity="0.5" fill="#8934eb"></circle><circle cx="1517.3389677736186" cy="291.2852339611513" r="4" stroke="none" stroke-width="0" fill-opacity="0.5" fill="#8934eb"></circle><circle cx="1517.5931076239917" cy="309.0428825214271" r="4" stroke="none" stroke-width="0" fill-opacity="0.5" fill="#8934eb"></circle><circle cx="1517.722388155921" cy="296.3099998256386" r="4" stroke="none" stroke-width="0" fill-opacity="0.5" fill="#8934eb"></circle><circle cx="1517.9765266854138" cy="308.2639342257136" r="4" stroke="none" stroke-width="0" fill-opacity="0.5" fill="#8934eb"></circle><circle cx="1518.3599470381992" cy="347.9713937129752" r="4" stroke="none" stroke-width="0" fill-opacity="0.5" fill="#8934eb"></circle><circle cx="1518.8682338170922" cy="418.5212111172607" r="4" stroke="none" stroke-width="0" fill-opacity="0.5" fill="#8934eb"></circle><circle cx="1519.5058007294367" cy="293.86222845879996" r="4" stroke="none" stroke-width="0" fill-opacity="0.5" fill="#8934eb"></circle><circle cx="1522.056058027246" cy="319.5568770757642" r="4" stroke="none" stroke-width="0" fill-opacity="0.5" fill="#8934eb"></circle><circle cx="1523.3311880058861" cy="311.10622362967956" r="4" stroke="none" stroke-width="0" fill-opacity="0.5" fill="#8934eb"></circle><circle cx="1523.9687554214934" cy="298.2765946629616" r="4" stroke="none" stroke-width="0" fill-opacity="0.5" fill="#8934eb"></circle><circle cx="1524.6063171949497" cy="303.15719649939246" r="4" stroke="none" stroke-width="0" fill-opacity="0.5" fill="#8934eb"></circle><circle cx="1524.9897368171924" cy="316.3218832898251" r="4" stroke="none" stroke-width="0" fill-opacity="0.5" fill="#8934eb"></circle><circle cx="1525.3731578414868" cy="338.9112620344471" r="4" stroke="none" stroke-width="0" fill-opacity="0.5" fill="#8934eb"></circle><circle cx="1525.6273045766713" cy="347.9745336261349" r="4" stroke="none" stroke-width="0" fill-opacity="0.5" fill="#8934eb"></circle><circle cx="1538.6327272840394" cy="362.87760917041356" r="4" stroke="none" stroke-width="0" fill-opacity="0.5" fill="#8934eb"></circle><circle cx="1556.2304062933956" cy="373.4605789262992" r="4" stroke="none" stroke-width="0" fill-opacity="0.5" fill="#8934eb"></circle><circle cx="1556.6138270977895" cy="395.50107499044697" r="4" stroke="none" stroke-width="0" fill-opacity="0.5" fill="#8934eb"></circle><circle cx="1557.122114691348" cy="418.982816782249" r="4" stroke="none" stroke-width="0" fill-opacity="0.5" fill="#8934eb"></circle><circle cx="1557.2513871061362" cy="415.84918743663036" r="4" stroke="none" stroke-width="0" fill-opacity="0.5" fill="#8934eb"></circle><circle cx="1557.5055339490575" cy="459.37954520581" r="4" stroke="none" stroke-width="0" fill-opacity="0.5" fill="#8934eb"></circle><circle cx="1558.3972427071158" cy="367.5775402062739" r="4" stroke="none" stroke-width="0" fill-opacity="0.5" fill="#8934eb"></circle><circle cx="1558.5265152015995" cy="410.1501791088193" r="4" stroke="none" stroke-width="0" fill-opacity="0.5" fill="#8934eb"></circle><circle cx="1559.034802948646" cy="478.5751383080959" r="4" stroke="none" stroke-width="0" fill-opacity="0.5" fill="#8934eb"></circle><circle cx="1559.164084562369" cy="502.38037761019905" r="4" stroke="none" stroke-width="0" fill-opacity="0.5" fill="#8934eb"></circle><circle cx="1559.4182231051443" cy="503.4077752540096" r="4" stroke="none" stroke-width="0" fill-opacity="0.5" fill="#8934eb"></circle><circle cx="1559.6723732879002" cy="520.0015478620173" r="4" stroke="none" stroke-width="0" fill-opacity="0.5" fill="#8934eb"></circle><circle cx="1559.8016448629332" cy="528.1106970947911" r="4" stroke="none" stroke-width="0" fill-opacity="0.5" fill="#8934eb"></circle><circle cx="1563.2436132137382" cy="349.7642472202279" r="4" stroke="none" stroke-width="0" fill-opacity="0.5" fill="#8934eb"></circle><circle cx="1563.4977611605905" cy="412.1362678257589" r="4" stroke="none" stroke-width="0" fill-opacity="0.5" fill="#8934eb"></circle><circle cx="1563.6270343826652" cy="399.2896217955328" r="4" stroke="none" stroke-width="0" fill-opacity="0.5" fill="#8934eb"></circle><circle cx="1563.8811807075651" cy="429.3612386730439" r="4" stroke="none" stroke-width="0" fill-opacity="0.5" fill="#8934eb"></circle><circle cx="1564.135322383557" cy="401.0623480740919" r="4" stroke="none" stroke-width="0" fill-opacity="0.5" fill="#8934eb"></circle><circle cx="1564.2645991771737" cy="390.3533326967851" r="4" stroke="none" stroke-width="0" fill-opacity="0.5" fill="#8934eb"></circle><circle cx="1564.772889188165" cy="498.8714474358091" r="4" stroke="none" stroke-width="0" fill-opacity="0.5" fill="#8934eb"></circle><circle cx="1567.0689976034369" cy="299.07874104716143" r="4" stroke="none" stroke-width="0" fill-opacity="0.5" fill="#8934eb"></circle><circle cx="1569.2358389110555" cy="272.9984148926122" r="4" stroke="none" stroke-width="0" fill-opacity="0.5" fill="#8934eb"></circle><circle cx="1569.8734068240221" cy="298.0078355254492" r="4" stroke="none" stroke-width="0" fill-opacity="0.5" fill="#8934eb"></circle><circle cx="1570.5109683761018" cy="342.7674291713938" r="4" stroke="none" stroke-width="0" fill-opacity="0.5" fill="#8934eb"></circle><circle cx="1572.423664021474" cy="381.14425437819943" r="4" stroke="none" stroke-width="0" fill-opacity="0.5" fill="#8934eb"></circle></g><g><g><text text-anchor="middle" x="322.9676883515481" y="731.3" font-family="Arial" font-size="18" stroke="none" stroke-width="0" fill="#444444">1994</text></g><g><text text-anchor="middle" x="416.05211215030795" y="731.3" font-family="Arial" font-size="18" stroke="none" stroke-width="0" fill="#444444">1996</text></g><g><text text-anchor="middle" x="509.2640488583812" y="731.3" font-family="Arial" font-size="18" stroke="none" stroke-width="0" fill="#444444">1998</text></g><g><text text-anchor="middle" x="602.3484726571411" y="731.3" font-family="Arial" font-size="18" stroke="none" stroke-width="0" fill="#444444">2000</text></g><g><text text-anchor="middle" x="695.5604093652144" y="731.3" font-family="Arial" font-size="18" stroke="none" stroke-width="0" fill="#444444">2002</text></g><g><text text-anchor="middle" x="788.6448331639742" y="731.3" font-family="Arial" font-size="18" stroke="none" stroke-width="0" fill="#444444">2004</text></g><g><text text-anchor="middle" x="881.8567698720475" y="731.3" font-family="Arial" font-size="18" stroke="none" stroke-width="0" fill="#444444">2006</text></g><g><text text-anchor="middle" x="974.9411936708074" y="731.3" font-family="Arial" font-size="18" stroke="none" stroke-width="0" fill="#444444">2008</text></g><g><text text-anchor="middle" x="1068.1531303788806" y="731.3" font-family="Arial" font-size="18" stroke="none" stroke-width="0" fill="#444444">2010</text></g><g><text text-anchor="middle" x="1161.2375541776405" y="731.3" font-family="Arial" font-size="18" stroke="none" stroke-width="0" fill="#444444">2012</text></g><g><text text-anchor="middle" x="1254.4494908857137" y="731.3" font-family="Arial" font-size="18" stroke="none" stroke-width="0" fill="#444444">2014</text></g><g><text text-anchor="middle" x="1347.5339146844735" y="731.3" font-family="Arial" font-size="18" stroke="none" stroke-width="0" fill="#444444">2016</text></g><g><text text-anchor="middle" x="1440.745851392547" y="731.3" font-family="Arial" font-size="18" stroke="none" stroke-width="0" fill="#444444">2018</text></g><g><text text-anchor="middle" x="1533.8302751913068" y="731.3" font-family="Arial" font-size="18" stroke="none" stroke-width="0" fill="#444444">2020</text></g><g><text text-anchor="end" x="281" y="710.8" font-family="Arial" font-size="18" stroke="none" stroke-width="0" fill="#444444">0.0</text></g><g><text text-anchor="end" x="281" y="657.0999999999999" font-family="Arial" font-size="18" stroke="none" stroke-width="0" fill="#444444">0.1</text></g><g><text text-anchor="end" x="281" y="603.4" font-family="Arial" font-size="18" stroke="none" stroke-width="0" fill="#444444">0.2</text></g><g><text text-anchor="end" x="281" y="549.6999999999999" font-family="Arial" font-size="18" stroke="none" stroke-width="0" fill="#444444">0.3</text></g><g><text text-anchor="end" x="281" y="496" font-family="Arial" font-size="18" stroke="none" stroke-width="0" fill="#444444">0.4</text></g><g><text text-anchor="end" x="281" y="442.3" font-family="Arial" font-size="18" stroke="none" stroke-width="0" fill="#444444">0.5</text></g><g><text text-anchor="end" x="281" y="388.6" font-family="Arial" font-size="18" stroke="none" stroke-width="0" fill="#444444">0.6</text></g><g><text text-anchor="end" x="281" y="334.90000000000003" font-family="Arial" font-size="18" stroke="none" stroke-width="0" fill="#444444">0.7</text></g><g><text text-anchor="end" x="281" y="281.2" font-family="Arial" font-size="18" stroke="none" stroke-width="0" fill="#444444">0.8</text></g><g><text text-anchor="end" x="281" y="227.5" font-family="Arial" font-size="18" stroke="none" stroke-width="0" fill="#444444">0.9</text></g><g><text text-anchor="end" x="281" y="173.8" font-family="Arial" font-size="18" stroke="none" stroke-width="0" fill="#444444">1.0</text></g></g></g><g><g><text text-anchor="middle" x="940" y="808.8" font-family="Arial" font-size="18" font-style="italic" stroke="none" stroke-width="0" fill="#222222">Date</text><rect x="299" y="793.5" width="1282" height="18" stroke="none" stroke-width="0" fill-opacity="0" fill="#ffffff"></rect></g><g><text text-anchor="middle" x="134.3" y="436" font-family="Arial" font-size="18" font-style="italic" transform="rotate(-90 134.3 436)" stroke="none" stroke-width="0" fill="#222222">visnirAlbedo</text><path d="M118.99999999999999,705L119.00000000000001,167L137.00000000000003,167L136.99999999999997,705Z" stroke="none" stroke-width="0" fill-opacity="0" fill="#ffffff"></path></g></g><g></g></svg>